# xmcd
#
# Track frame offsets: 
#        150
#        23843
#        46139
#        66595
#        84382
#        103926
#        124679
#        143701
#        164184
#        185183
#        203665
#        228803
#        246209
#        265714
#        282276
#        309043
#
# Disc length: 4406 seconds
#
# Revision: 0
# Processed by: cddbd v1.5.2PL0 Copyright (c) Steve Scherf et al.
# Submitted via: ExactAudioCopyFreeDBPlugin 1.0
#
DISCID=e1113410
DTITLE=群星 - stereo 情歌试音王9号
DYEAR=2008
DGENRE=Acid
TTITLE0=你怎么舍得让我掉眼泪
TTITLE1=这一生回忆有你就足够
TTITLE2=爱得太认真
TTITLE3=你的承诺
TTITLE4=爱上你等于爱上了错
TTITLE5=刻骨的温柔
TTITLE6=哭泣的玫瑰
TTITLE7=你是我今生最爱的女孩
TTITLE8=我们能不能永远在一起
TTITLE9=我爱的男人变了心
TTITLE10=你失去了最爱的人
TTITLE11=小酒窝
TTITLE12=当我孤独的时候还可以抱着你
TTITLE13=爱到底怎么了
TTITLE14=林黛玉没有眼泪
TTITLE15=春天的味道
EXTD=
EXTT0=
EXTT1=
EXTT2=
EXTT3=
EXTT4=
EXTT5=
EXTT6=
EXTT7=
EXTT8=
EXTT9=
EXTT10=
EXTT11=
EXTT12=
EXTT13=
EXTT14=
EXTT15=
PLAYORDER=
